# xmcd
#
# Track frame offsets:
#	187
#	20790
#	33615
#	45087
#	58305
#	70877
#	85092
#	98030
#	111085
#	125910
#	138855
#	153712
#	170165
#	181842
#	200355
#
# Disc length: 2806 seconds
#
# Revision: 0
# Processed by: cddbd v1.5.1PL2 Copyright (c) Steve Scherf et al.
# Submitted via: audiograbber 1.83.01
#
DISCID=d40af40f
DTITLE=Merle Haggard - His Greatest And His Best
DYEAR=1985
DGENRE=Country
TTITLE0=I Think I'll Just Stay Here and Drink
TTITLE1=I'm Always on a Mountain When I Fall
TTITLE2=Red Bandana
TTITLE3=The Way I Am 
TTITLE4=It's Been a Great Afternoon
TTITLE5=Ramblin' Fever
TTITLE6=Misery and Gin
TTITLE7=My Own Kind of Hat
TTITLE8=If We're Not Back in Love by Monday
TTITLE9=Rainbow Stew
TTITLE10=When My Blue Moon Turns to Gold Again
TTITLE11=Leonard
TTITLE12=Back to the Barrooms Again
TTITLE13=Wake Up
TTITLE14=The Running Kind
EXTD=
EXTT0=
EXTT1=
EXTT2=
EXTT3=
EXTT4=
EXTT5=
EXTT6=
EXTT7=
EXTT8=
EXTT9=
EXTT10=
EXTT11=
EXTT12=
EXTT13=
EXTT14=
PLAYORDER=
